<svg xmlns="http://www.w3.org/2000/svg" height="234.988" width="235.007"><g transform="translate(-384.138 -328.849)"><path d="M583.659 328.849H419.625c-19.599 0-35.487 15.888-35.487 35.487v164.015c0 19.599 15.888 35.486 35.487 35.486h164.033c19.599 0 35.487-15.888 35.487-35.486V364.337c.001-19.599-15.888-35.488-35.486-35.488z" fill="#1d8cb5"/><linearGradient gradientTransform="rotate(180 -17.27 206.273) scale(.5915)" y2="49.203" x2="-860.569" y1="199.892" x1="-808.873" gradientUnits="userSpaceOnUse" id="a"><stop offset="0" stop-color="#fff"/><stop offset="1" stop-color="#fff" stop-opacity="0"/></linearGradient><path d="M557.056 338.895H446.227c-29.337 0-52.955 23.81-52.955 53.385v108.127c.95 23.087 4.603 8.491 11.555-17.075 8.081-29.713 34.396-55.682 66.445-75.145 24.461-14.855 51.84-24.341 101.679-25.244 28.265-.511 25.77-36.683-15.895-44.048z" fill="url(#a)" opacity=".781"/></g><g fill="#fff"><path d="M71.108 197.256V90.985h-35.32v106.27zM53.455 76.475c12.308 0 19.981-8.161 19.981-18.36-.228-10.426-7.673-18.36-19.75-18.36-12.087 0-19.984 7.934-19.984 18.36 0 10.199 7.662 18.36 19.52 18.36zM90.655 197.256h35.326V137.91c0-3.178.23-6.352 1.165-8.621 2.547-6.35 8.363-12.92 18.118-12.92 12.784 0 17.893 9.748 17.893 24.032v56.855h35.319V136.32c0-32.643-17.422-47.83-40.665-47.83-19.053 0-27.421 10.647-32.068 17.902h.238V90.985H90.655c.469 9.97 0 106.27 0 106.27z"/></g></svg>