<svg xmlns="http://www.w3.org/2000/svg" viewBox="0 0 44.604 47.512" height="179.573" width="168.584"><g stroke="#000"><path d="M26.076.53c-.309.684-.61 1.37-.925 2.05-.534 1.154-1.088 2.297-1.622 3.45-2.912 6.28-5.74 12.6-8.579 18.915-1.918 4.137-1.266 2.902-3.083 6.301-.23.433-.49.85-.706 1.29-.037.077-.127.287-.051.25a10.757 10.757 0 001.699-1.059c.309-.231.542-.55.813-.825 1.305-1.248.507-.525 1.853-1.66.042-.035-.185.112-.13.103.306-.051.593-.193.901-.231.676-.084 1.004.048 1.647.196.26.079 1.391.425 1.644.498.27.078.559.345.811.223.816-.395 1.58-.957 2.155-1.658.915-1.117 1.762-4.527 2.093-5.627.99-3.828 1.265-7.774 1.091-11.714-.088-1.988-.223-4.134-1.07-5.99-.336-.737-.909-1.341-1.364-2.012-.69-.39-1.311-.939-2.07-1.168-1.898-.573-4.122-.217-5.961.285-2.92.795-5.178 2.04-7.719 3.747-1.046.702-1.963 1.58-2.944 2.369-.788.86-1.66 1.649-2.363 2.579-1.622 2.145-2.628 4.61-2.014 7.323.402 1.777.937 2.07 2.075 3.374.564.352 1.06.851 1.692 1.057 1.654.538 4.506.476 6.148.375 3.398-.209 6.732-.889 10.058-1.574l.893-.677h0c-3.324.7-6.653 1.388-10.053 1.596-1.614.1-4.41.16-6.041-.368-.623-.201-1.115-.686-1.672-1.028-1.122-1.27-1.654-1.559-2.053-3.298-.611-2.663.385-5.102 1.98-7.205.7-.923 1.568-1.705 2.352-2.557.981-.783 1.916-1.628 2.943-2.35 1.821-1.284 3.665-2.095 5.829-2.694 1.8-.498 4.003-.857 5.87-.314.745.217 1.362.746 2.044 1.12.455.656 1.028 1.246 1.367 1.97.858 1.83 1.016 3.96 1.113 5.93.193 3.937-.099 7.876-1.125 11.693-2.76 8.659 1.264-2.408-1.497 4.258-.06.145-.561 1.792-.71 1.84-.267.085-.542-.142-.811-.22-.472-.134-1.177-.358-1.646-.506-.651-.161-1-.304-1.688-.24-1.95.185-3.44 1.768-4.78 3.033-.28.278-.753.45-.84.835-.047.213.41-.518.62-.577.056-.016.01.447.033.393.188-.428.416-.836.625-1.254 1.912-3.819.797-1.489 2.95-6.248C19.528 16.297 23.215 8.068 27.238 0l-1.162.53zM30.311 1.661c-.218 1.73-.709 3.414-1.174 5.09-.227.747-.398 1.51-.606 2.262a11.94 11.94 0 01-.113.38c-.01.034-.068.115-.036.1.411-.205.8-.451 1.2-.677.043-.21.25-.421.193-.635 0 0 1.305-.925-.429.2.93-.196 1.837-.434 2.713-.805.263-.095.49-.264.745-.374.107-.046.223-.065.226-.034.004.037-.027.07-.038.105-.02.069-.036.14-.053.209-.09.341-.277.656-.353 1.002-.032.15-.035.326-.042.48.069.662.698.621 1.208.525 1.803-.7 2.38-1.513 3.146-3.117.254-.754.524-1.669.169-2.443-.049-.106-.126-.196-.188-.294-.327-.345-.63-.355-1.055-.126-1.502.81-1.548.81-2.372 1.967-.319.551-.637 1.118-.829 1.73-.147.467-.174.762-.251 1.247l1.15-.563h0c.192-1.114.472-1.968 1.105-2.922.132-.178.253-.365.397-.535.36-.425.956-.825-.219-.125-.17.102.424-.291.72-.205.096.027.153.125.23.188.058.088.13.167.173.262.343.743.054 1.634-.196 2.349-.291.592-.588 1.153-1.02 1.657-.117.135-.553.39-.375.38.29-.014.518-.265.775-.4.107-.058-.217.108-.326.163-.38.102-1.042.242-1.073-.326.035-.516.244-.975.404-1.462.206-1.022-.583-.347-1.046-.138-.866.382-1.765.647-2.701.802-1.173.628-1.762.61-1.97 1.819.39-.157.79-.29 1.171-.47.028-.013.011-.06.019-.09.032-.127.068-.252.1-.379.19-.75.363-1.503.579-2.246.462-1.695.962-3.392 1.214-5.133l-1.172.582z" stroke-width=".5"/><path d="M29.161 12.96c-.166 2.193-.703 4.349-1.265 6.486-.678 2.577-1.167 4.214-1.914 6.804-.325 1.152-.652 2.304-.975 3.456-.297 1.06-.606 2.117-.884 3.18-.885 3.393-1.594 6.82-2.35 10.236-.251 1.166-.52 2.329-.768 3.495-.08.373-.133.418-.237.786.366-.219.83-.01 1.087-.325.145-.177-.021-.435-.027-.653-.008-.28-.01-.56-.014-.841-.012-.984-.031-1.22.066-2.256.043-.468.114-.934.172-1.401.466-2.881 1.306-5.727 2.662-8.394.367-.72.789-1.42 1.183-2.13 1.324-2.231 2.898-4.34 4.59-6.372.996-1.194 1.833-2.15 2.977-3.23.458-.433.956-.833 1.433-1.25a32.089 32.089 0 013.628-2.526c.24-.145.486-.283.731-.42.078-.044.33-.115.239-.124-.446-.042-.896.013-1.344.02-1.607 1.068-3.199 2.156-4.609 3.422-.47.423-.915.869-1.373 1.303-.903.926-1.761 1.76-2.56 2.758a27.775 27.775 0 00-2.14 3.166c-.795 1.393-.888 1.75-1.48 3.19-.144.508-.461 1.002-.432 1.525.035.634.321 1.247.618 1.827 1.119 2.188 3.306 3.755 5.485 5.116.81.506 1.67.95 2.504 1.424a61.871 61.871 0 009.69 4.018l.75-.687h0c-.703-.19-1.234-.329-1.946-.553a53.18 53.18 0 01-7.89-3.23c-.829-.468-1.684-.902-2.485-1.405-1.484-.931-3.005-2.019-4.12-3.302-.71-.815-1.635-2.296-1.667-3.388-.015-.511.282-.993.424-1.49.584-1.42.67-1.764 1.463-3.135 1.236-2.14 2.858-4.08 4.713-5.845.47-.427.923-.868 1.407-1.282 1.465-1.257 3.107-2.363 4.823-3.346-.334-.057-.663-.157-1.004-.172-.069-.003-.097.086-.152.122-.224.15-.457.288-.682.435-1.226.805-2.415 1.654-3.52 2.583-.465.424-.95.833-1.397 1.272-1.135 1.112-1.922 2.035-2.912 3.257-1.668 2.059-3.227 4.188-4.584 6.414-.411.72-.853 1.427-1.234 2.16-1.399 2.693-2.246 5.58-2.736 8.496-.15 1.117-.239 1.601-.297 2.702l-.027 1.869c-.004.226-.218.539-.013.678.299.203.755.055 1.133.082.168-1.525.484-3.035.738-4.55.211-1.122.616-3.297.83-4.342.624-3.022 1.355-6.02 2.166-9.008.314-1.152.641-2.301.962-3.452.353-1.18.7-2.362 1.059-3.541.81-2.658 1.064-3.295 1.733-5.788.512-1.907.384-1.526.713-3.188.06-.3.126-.6.188-.899l-1.129.243z" stroke-width=".6"/></g></svg>